<svg width="38" height="38" viewBox="0 0 38 38" fill="none" xmlns="http://www.w3.org/2000/svg">
<rect width="38" height="38" rx="4.28406" fill="#FFAE68"/>
<path d="M27.0404 21.6386L24.2125 21.3158C23.88 21.2767 23.5429 21.3135 23.2267 21.4234C22.9104 21.5334 22.6232 21.7135 22.3866 21.9504L20.338 23.999C17.1774 22.3915 14.6085 19.8225 13.001 16.6619L15.0607 14.6022C15.5395 14.1235 15.7733 13.4555 15.6953 12.7763L15.3725 9.97065C15.3093 9.42752 15.0487 8.92658 14.6401 8.56319C14.2316 8.1998 13.7037 7.99935 13.1569 8H11.2308C9.97271 8 8.92616 9.04656 9.00409 10.3047C9.59417 19.8127 17.1984 27.4058 26.6953 27.9959C27.9533 28.0738 28.9999 27.0273 28.9999 25.7692V23.8431C29.011 22.7186 28.1649 21.7722 27.0404 21.6386Z" fill="white"/>
</svg>
