<svg width="38" height="38" viewBox="0 0 38 38" fill="none" xmlns="http://www.w3.org/2000/svg">
<rect width="38" height="38" rx="4.28406" fill="#FFAE68"/>
<path d="M26.7063 21.7578V15.3487L21.1813 9.82373H19.1923C17.9545 9.82373 17.3357 9.82373 16.863 10.0646C16.4471 10.2765 16.109 10.6146 15.8972 11.0304C15.6562 11.5032 15.6562 12.122 15.6562 13.3598V21.7578C15.6562 22.9956 15.6562 23.6144 15.8972 24.0871C16.109 24.503 16.4471 24.8411 16.863 25.053C17.3357 25.2938 17.9545 25.2938 19.1923 25.2938H23.1703C24.4081 25.2938 25.0269 25.2938 25.4996 25.053C25.9155 24.8411 26.2536 24.503 26.4655 24.0871C26.7063 23.6144 26.7063 22.9956 26.7063 21.7578Z" fill="white"/>
<path d="M14.7704 29.7138H18.7484C19.9862 29.7138 20.605 29.7138 21.0778 29.4729C21.4936 29.261 21.8317 28.923 22.0436 28.5071C22.2845 28.0343 22.2845 27.4155 22.2845 26.1778C22.2845 25.6895 21.8887 25.2937 21.4005 25.2937H19.1904C17.9527 25.2937 17.3338 25.2937 16.8611 25.0529C16.4453 24.841 16.1072 24.5029 15.8953 24.087C15.6544 23.6143 15.6544 22.9955 15.6544 21.7577V15.1277C15.6544 14.6394 15.2586 14.2437 14.7704 14.2437C13.5327 14.2437 12.9138 14.2437 12.4411 14.4846C12.0252 14.6964 11.6871 15.0345 11.4753 15.4504C11.2344 15.9231 11.2344 16.5419 11.2344 17.7797V26.1778C11.2344 27.4155 11.2344 28.0343 11.4753 28.5071C11.6871 28.923 12.0252 29.261 12.4411 29.4729C12.9138 29.7138 13.5327 29.7138 14.7704 29.7138Z" fill="white"/>
<path d="M26.7045 15.3487V21.7578C26.7045 22.9956 26.7045 23.6144 26.4636 24.0871C26.2517 24.503 25.9136 24.8411 25.4978 25.053C25.0251 25.2938 24.4062 25.2938 23.1684 25.2938H19.1904M26.7045 15.3487L21.1795 9.82373M26.7045 15.3487H22.9475C22.3286 15.3487 22.0192 15.3487 21.7828 15.2283C21.5749 15.1224 21.4059 14.9534 21.2999 14.7454C21.1795 14.509 21.1795 14.1996 21.1795 13.5808V9.82373M19.1904 25.2938C17.9527 25.2938 17.3338 25.2938 16.8611 25.053C16.4453 24.8411 16.1072 24.503 15.8953 24.0871C15.6544 23.6144 15.6544 22.9956 15.6544 21.7578M19.1904 25.2938H21.4005C21.8887 25.2938 22.2845 25.6896 22.2845 26.1779C22.2845 27.4156 22.2845 28.0344 22.0436 28.5072C21.8317 28.9231 21.4936 29.2611 21.0778 29.473C20.605 29.7139 19.9862 29.7139 18.7484 29.7139H14.7704C13.5327 29.7139 12.9138 29.7139 12.4411 29.473C12.0252 29.2611 11.6871 28.9231 11.4753 28.5072C11.2344 28.0344 11.2344 27.4156 11.2344 26.1779V17.7798C11.2344 16.542 11.2344 15.9232 11.4753 15.4505C11.6871 15.0346 12.0252 14.6965 12.4411 14.4847C12.9138 14.2438 13.5327 14.2438 14.7704 14.2438C15.2586 14.2438 15.6544 14.6395 15.6544 15.1278V21.7578M21.1795 9.82373H19.1904C17.9527 9.82373 17.3338 9.82373 16.8611 10.0646C16.4453 10.2765 16.1072 10.6146 15.8953 11.0304C15.6544 11.5032 15.6544 12.122 15.6544 13.3598V21.7578" stroke="#FFAE68" stroke-width="1.32601" stroke-linecap="round" stroke-linejoin="round"/>
</svg>
