<svg width="38" height="38" viewBox="0 0 38 38" fill="none" xmlns="http://www.w3.org/2000/svg">
<rect width="38" height="38" rx="4.28406" fill="#FFAE68"/>
<path d="M28.4753 18.1102L24.25 21.755L25.5158 27.1816C25.5827 27.4653 25.5636 27.7622 25.4608 28.0352C25.358 28.3082 25.1761 28.5452 24.9377 28.7166C24.6994 28.8879 24.4152 28.986 24.1208 28.9986C23.8263 29.0112 23.5347 28.9377 23.2823 28.7874L18.4939 25.9166L13.7159 28.7874C13.4634 28.9377 13.1718 29.0112 12.8773 28.9986C12.5829 28.986 12.2988 28.8879 12.0604 28.7166C11.8221 28.5452 11.6401 28.3082 11.5373 28.0352C11.4345 27.7622 11.4154 27.4653 11.4824 27.1816L12.7462 21.7606L8.51998 18.1102C8.29645 17.9196 8.13482 17.6681 8.05535 17.3871C7.97588 17.1061 7.98211 16.8081 8.07326 16.5306C8.16441 16.2531 8.33642 16.0084 8.56773 15.8271C8.79903 15.6459 9.07933 15.5361 9.37347 15.5117L14.9441 15.0348L17.1186 9.90826C17.2321 9.63926 17.4237 9.40948 17.6691 9.24786C17.9145 9.08624 18.2028 9 18.4977 9C18.7925 9 19.0808 9.08624 19.3262 9.24786C19.5716 9.40948 19.7632 9.63926 19.8767 9.90826L22.0578 15.0348L27.6265 15.5117C27.9207 15.5361 28.201 15.6459 28.4323 15.8271C28.6636 16.0084 28.8356 16.2531 28.9267 16.5306C29.0179 16.8081 29.0241 17.1061 28.9447 17.3871C28.8652 17.6681 28.7035 17.9196 28.48 18.1102H28.4753Z" fill="white"/>
</svg>
