<svg width="38" height="38" viewBox="0 0 38 38" fill="none" xmlns="http://www.w3.org/2000/svg">
<rect width="37.6998" height="37.6998" rx="10" fill="#FFAE68"/>
<path d="M19.1818 10V15.4395C19.1818 15.8002 19.3255 16.1461 19.5812 16.4012C19.837 16.6562 20.1838 16.7995 20.5455 16.7995H25.9993L26 16.8526V24.6864C26 25.1193 25.8276 25.5344 25.5207 25.8405C25.2138 26.1465 24.7976 26.3185 24.3636 26.3185H17.1364V23.3692C17.6181 22.6859 17.8566 21.8613 17.8138 21.027C17.7711 20.1927 17.4495 19.3967 16.9003 18.7659C16.3512 18.1351 15.6061 17.7059 14.7839 17.5465C13.9617 17.3872 13.1096 17.507 12.3636 17.8869V11.6321C12.3636 11.1992 12.536 10.7841 12.8429 10.478C13.1498 10.1719 13.566 10 14 10H19.1818ZM15.7727 24.5504C16.0156 24.4266 16.2442 24.2768 16.4545 24.1036V26.5238C16.4544 26.6131 16.4292 26.7005 16.3817 26.7761C16.3342 26.8517 16.2663 26.9125 16.1858 26.9515C16.1054 26.9905 16.0155 27.0061 15.9266 26.9966C15.8376 26.9872 15.7531 26.9529 15.6827 26.8979L14.0689 25.6385L13.3625 26.1893L12.4536 26.8985C12.3832 26.9536 12.2986 26.9879 12.2096 26.9973C12.1206 27.0068 12.0307 26.9911 11.9502 26.952C11.8697 26.9129 11.8019 26.852 11.7544 26.7763C11.7069 26.7006 11.6818 26.6131 11.6818 26.5238V24.103C12.4129 24.7072 13.3476 25.0105 14.2952 24.951C14.8102 24.921 15.3133 24.7849 15.7727 24.5511M14.0682 24.2791C13.6651 24.2795 13.266 24.2007 12.8935 24.0471C12.5211 23.8934 12.1826 23.6681 11.8977 23.3838C11.6127 23.0996 11.3867 22.762 11.2326 22.3906C11.0786 22.0191 10.9996 21.621 11 21.219C10.9996 20.8171 11.0788 20.419 11.2328 20.0476C11.3869 19.6762 11.6129 19.3388 11.8979 19.0546C12.1829 18.7705 12.5213 18.5451 12.8937 18.3915C13.2661 18.238 13.6652 18.1591 14.0682 18.1596C14.4749 18.1535 14.8788 18.2282 15.2563 18.3793C15.6338 18.5303 15.9775 18.7547 16.2672 19.0395C16.557 19.3242 16.7871 19.6635 16.9442 20.0378C17.1012 20.412 17.1821 20.8136 17.1821 21.2193C17.1821 21.625 17.1012 22.0267 16.9442 22.4009C16.7871 22.7751 16.557 23.1145 16.2672 23.3992C15.9775 23.6839 15.6338 23.9084 15.2563 24.0594C14.8788 24.2105 14.4749 24.2851 14.0682 24.2791ZM20.2045 10.3237V15.4402C20.2045 15.5303 20.2405 15.6168 20.3044 15.6806C20.3683 15.7444 20.455 15.7802 20.5455 15.7802H25.6605C25.5981 15.6913 25.528 15.608 25.4511 15.5313L20.3845 10.4787C20.3284 10.4228 20.2682 10.3709 20.2045 10.3237Z" fill="white"/>
</svg>
