<svg width="31" height="31" viewBox="0 0 31 31" fill="none" xmlns="http://www.w3.org/2000/svg">
<circle cx="15.5" cy="15.5" r="15.5" fill="#333333"/>
<path d="M16.271 8C17.1147 8.00225 17.5429 8.00675 17.9127 8.01725L18.0582 8.0225C18.2262 8.0285 18.3919 8.036 18.5921 8.045C19.3901 8.0825 19.9346 8.2085 20.4123 8.39374C20.9073 8.58424 21.3243 8.84223 21.7412 9.25847C22.1226 9.63338 22.4177 10.0869 22.6059 10.5874C22.7912 11.0652 22.9172 11.6097 22.9547 12.4084C22.9637 12.6079 22.9712 12.7736 22.9772 12.9424L22.9817 13.0879C22.9929 13.4569 22.9974 13.8851 22.9989 14.7288L22.9997 15.2883V16.2708C23.0015 16.8178 22.9958 17.3649 22.9824 17.9118L22.9779 18.0573C22.9719 18.226 22.9644 18.3918 22.9554 18.5913C22.9179 19.39 22.7904 19.9337 22.6059 20.4122C22.4182 20.913 22.1231 21.3667 21.7412 21.7412C21.3662 22.1224 20.9128 22.4175 20.4123 22.6059C19.9346 22.7912 19.3901 22.9172 18.5921 22.9547C18.4142 22.963 18.2362 22.9705 18.0582 22.9771L17.9127 22.9816C17.5429 22.9921 17.1147 22.9974 16.271 22.9989L15.7115 22.9996H14.7298C14.1826 23.0015 13.6353 22.9958 13.0882 22.9824L12.9427 22.9779C12.7646 22.9712 12.5867 22.9634 12.4087 22.9547C11.6107 22.9172 11.0663 22.7912 10.5878 22.6059C10.0873 22.4179 9.63401 22.1228 9.25962 21.7412C8.87792 21.3664 8.58257 20.9129 8.39416 20.4122C8.20892 19.9345 8.08293 19.39 8.04543 18.5913C8.03707 18.4133 8.02958 18.2353 8.02293 18.0573L8.01918 17.9118C8.00536 17.3649 7.99911 16.8179 8.00043 16.2708V14.7288C7.99834 14.1818 8.00384 13.6348 8.01693 13.0879L8.02218 12.9424C8.02818 12.7736 8.03568 12.6079 8.04468 12.4084C8.08218 11.6097 8.20817 11.0659 8.39341 10.5874C8.58174 10.0864 8.87768 9.63273 9.26037 9.25847C9.63467 8.87709 10.0877 8.58198 10.5878 8.39374C11.0663 8.2085 11.61 8.0825 12.4087 8.045C12.6082 8.036 12.7747 8.0285 12.9427 8.0225L13.0882 8.018C13.635 8.00467 14.1821 7.99892 14.7291 8.00075L16.271 8ZM15.5 11.7499C14.5055 11.7499 13.5518 12.145 12.8485 12.8482C12.1453 13.5515 11.7502 14.5053 11.7502 15.4998C11.7502 16.4944 12.1453 17.4482 12.8485 18.1514C13.5518 18.8547 14.5055 19.2497 15.5 19.2497C16.4946 19.2497 17.4483 18.8547 18.1516 18.1514C18.8548 17.4482 19.2499 16.4944 19.2499 15.4998C19.2499 14.5053 18.8548 13.5515 18.1516 12.8482C17.4483 12.145 16.4946 11.7499 15.5 11.7499ZM15.5 13.2499C15.7955 13.2498 16.0881 13.308 16.3611 13.421C16.6341 13.534 16.8821 13.6997 17.0911 13.9086C17.3 14.1175 17.4658 14.3655 17.5789 14.6385C17.692 14.9114 17.7503 15.204 17.7503 15.4995C17.7504 15.7949 17.6922 16.0875 17.5792 16.3605C17.4662 16.6335 17.3005 16.8816 17.0916 17.0905C16.8827 17.2995 16.6347 17.4652 16.3618 17.5784C16.0888 17.6915 15.7963 17.7497 15.5008 17.7498C14.9041 17.7498 14.3318 17.5127 13.9099 17.0908C13.488 16.6688 13.2509 16.0965 13.2509 15.4998C13.2509 14.9031 13.488 14.3308 13.9099 13.9089C14.3318 13.4869 14.9041 13.2499 15.5008 13.2499M19.4381 10.6249C19.1895 10.6249 18.951 10.7237 18.7752 10.8995C18.5994 11.0753 18.5006 11.3138 18.5006 11.5624C18.5006 11.8111 18.5994 12.0495 18.7752 12.2253C18.951 12.4011 19.1895 12.4999 19.4381 12.4999C19.6867 12.4999 19.9252 12.4011 20.101 12.2253C20.2768 12.0495 20.3755 11.8111 20.3755 11.5624C20.3755 11.3138 20.2768 11.0753 20.101 10.8995C19.9252 10.7237 19.6867 10.6249 19.4381 10.6249Z" fill="white"/>
</svg>
