<svg width="18" height="18" viewBox="0 0 18 18" fill="none" xmlns="http://www.w3.org/2000/svg">
<path d="M6.97168 7.5C6.97168 6.85353 7.21933 6.23355 7.66016 5.77643C8.10098 5.31931 8.69886 5.0625 9.32228 5.0625C9.9457 5.0625 10.5436 5.31931 10.9844 5.77643C11.4252 6.23355 11.6729 6.85353 11.6729 7.5C11.6729 8.14647 11.4252 8.76645 10.9844 9.22357C10.5436 9.68069 9.9457 9.9375 9.32228 9.9375C8.69886 9.9375 8.10098 9.68069 7.66016 9.22357C7.21933 8.76645 6.97168 8.14647 6.97168 7.5Z" fill="white"/>
<path fill-rule="evenodd" clip-rule="evenodd" d="M3.37283 6.65775C3.49281 5.14994 4.15514 3.74402 5.22835 2.71909C6.30155 1.69416 7.70716 1.12515 9.16617 1.125H9.47862C10.9376 1.12515 12.3432 1.69416 13.4164 2.71909C14.4896 3.74402 15.152 5.14994 15.2719 6.65775C15.406 8.34112 14.9048 10.0127 13.8739 11.3205L10.4073 15.717C10.2759 15.8838 10.1104 16.0181 9.92276 16.1104C9.73513 16.2027 9.53006 16.2506 9.32239 16.2506C9.11472 16.2506 8.90965 16.2027 8.72202 16.1104C8.53439 16.0181 8.36889 15.8838 8.2375 15.717L4.77162 11.3205C3.74047 10.0128 3.239 8.34122 3.37283 6.65775ZM9.32239 3.9375C8.41124 3.9375 7.53741 4.31283 6.89313 4.98093C6.24885 5.64903 5.88689 6.55517 5.88689 7.5C5.88689 8.44483 6.24885 9.35097 6.89313 10.0191C7.53741 10.6872 8.41124 11.0625 9.32239 11.0625C10.2335 11.0625 11.1074 10.6872 11.7517 10.0191C12.3959 9.35097 12.7579 8.44483 12.7579 7.5C12.7579 6.55517 12.3959 5.64903 11.7517 4.98093C11.1074 4.31283 10.2335 3.9375 9.32239 3.9375Z" fill="white"/>
</svg>
