<svg width="73" height="27" viewBox="0 0 73 27" fill="none" xmlns="http://www.w3.org/2000/svg">
<path d="M20.1208 26.1194V21.6522L17.542 20.2279V2.98108C17.542 0.994872 16.7161 0.00176882 15.0645 0.00176882H8.37148C6.71984 0.00176882 5.89403 0.993105 5.89403 2.98108V23.1454C5.89403 25.1175 6.70196 26.1035 8.31931 26.1035H15.1167C16.2749 26.1035 17.0083 25.5893 17.3377 24.5803L20.1208 26.1194ZM35.5221 26.107L38.736 0.00530646H35.4089L33.711 15.4638C33.6454 16.517 33.6081 17.3122 33.5992 17.8459C33.5426 16.7909 33.5008 15.9957 33.4725 15.4638L31.5764 0.00530646H28.8828L26.9882 15.4638C26.9136 16.517 26.8719 17.3122 26.8615 17.8459C26.8153 16.7909 26.778 15.9957 26.7497 15.4638L25.0518 0.00530646H21.7247L24.9385 26.107H28.1658L30.1171 11.3306C30.1916 10.2774 30.2288 9.48222 30.2288 8.95033C30.284 10.0053 30.3228 10.7987 30.3406 11.3306L32.3053 26.107H35.5192H35.5221ZM50.6403 26.107L46.4098 0.00530646H42.953L38.6942 26.107H41.9409L42.6012 21.1592H46.7199L47.3802 26.107H50.6403ZM46.2563 17.8105H43.038L44.6539 6.05052L46.2563 17.8105ZM57.0173 3.44937H60.6381V0.00530646H50.1275V3.44937H53.7483V26.107H57.0188V3.44937H57.0173ZM73 3.44937V0.00530646H62.4879V3.44937H66.1087V26.107H69.3777V3.44937H72.9985H73ZM10.67 8.74006C10.6447 9.80915 10.515 10.8924 10.1871 12.7301C9.74734 15.2306 9.66536 15.8826 9.63555 17.086C9.59679 18.7895 9.79356 20.3605 10.2929 22.3414L10.3034 22.3802H9.09593C8.59359 20.3887 8.39532 18.7983 8.43706 17.0754C8.46538 15.8667 8.55335 15.1652 8.9916 12.6718C9.31954 10.8288 9.44177 9.9558 9.47158 8.72944C9.50736 7.1691 9.31058 5.79783 8.7188 3.48647L8.70837 3.4476H9.91878C10.5106 5.76603 10.7073 7.15497 10.6715 8.73829M12.8345 8.73829C12.8091 9.80914 12.6794 10.8906 12.3515 12.7284C11.9118 15.2306 11.8283 15.8826 11.8 17.0843C11.7612 18.7877 11.9565 20.3587 12.4574 22.3396L12.4678 22.3785H11.2589C10.758 20.3852 10.5597 18.7948 10.6015 17.0736C10.6298 15.8632 10.7178 15.1634 11.156 12.6701C11.4839 10.8252 11.6062 9.95227 11.6345 8.72767C11.6718 7.16733 11.475 5.79608 10.8832 3.48472L10.8728 3.44583H12.0817C12.6735 5.76426 12.8717 7.1532 12.8345 8.73652M14.9959 8.73652C14.9721 9.80561 14.8409 10.8871 14.5144 12.7266C14.0747 15.227 13.9912 15.8791 13.9629 17.0825C13.9227 18.786 14.1194 20.3569 14.6188 22.3378L14.6292 22.3767H13.4218C12.9209 20.387 12.7227 18.7966 12.7629 17.0719C12.7927 15.8579 12.8807 15.1599 13.3189 12.6683C13.6454 10.8252 13.7676 9.95403 13.7974 8.72591C13.8332 7.16556 13.6364 5.79431 13.0447 3.48295L13.0342 3.44406H14.2431C14.8349 5.76249 15.0332 7.15143 14.9959 8.73475M0 26.1017H3.27049V6.34564H0V26.1017ZM0 3.44406H3.27049V0H0V3.44406Z" fill="#F07D00"/>
</svg>
