<svg width="159" height="49" viewBox="0 0 159 49" fill="none" xmlns="http://www.w3.org/2000/svg">
<path d="M43.6833 49V40.6195L38.0846 37.9476V5.59251C38.0846 1.86638 36.2917 0.0033183 32.7059 0.0033183H18.175C14.5892 0.0033183 12.7963 1.86307 12.7963 5.59251V43.4207C12.7963 47.1203 14.5503 48.9702 18.0617 48.9702H32.8192C35.3337 48.9702 36.926 48.0055 37.6412 46.1126L43.6833 49ZM77.1206 48.9768L84.098 0.00995491H76.8747L73.1885 29.0101C73.0462 30.9859 72.9652 32.4777 72.9458 33.4788C72.8228 31.4998 72.7322 30.008 72.6707 29.0101L68.5542 0.00995491H62.7062L58.5929 29.0101C58.4311 30.9859 58.3405 32.4777 58.3178 33.4788C58.2175 31.4998 58.1366 30.008 58.0751 29.0101L54.389 0.00995491H47.1656L54.143 48.9768H61.1495L65.3859 21.2562C65.5477 19.2804 65.6286 17.7886 65.6286 16.7908C65.7483 18.7699 65.8325 20.2584 65.8713 21.2562L70.1367 48.9768H77.1142H77.1206ZM109.943 48.9768L100.758 0.00995491H93.2535L84.0074 48.9768H91.056L92.4897 39.6946H101.432L102.865 48.9768H109.943ZM100.425 33.4126H93.438L96.9461 11.3508L100.425 33.4126ZM123.788 6.47101H131.649V0.00995491H108.83V6.47101H116.691V48.9768H123.791V6.47101H123.788ZM158.487 6.47101V0.00995491H135.665V6.47101H143.526V48.9768H150.623V6.47101H158.484H158.487ZM23.1653 16.3963C23.1103 18.402 22.8287 20.4341 22.1167 23.8817C21.162 28.5726 20.9841 29.7958 20.9193 32.0534C20.8352 35.2491 21.2624 38.1962 22.3465 41.9124L22.3692 41.9853H19.7478C18.6572 38.2492 18.2267 35.2657 18.3174 32.0335C18.3788 29.766 18.5698 28.4499 19.5213 23.7724C20.2333 20.3147 20.4986 18.6771 20.5634 16.3764C20.641 13.4492 20.2138 10.8767 18.929 6.54062L18.9064 6.4677H21.5342C22.819 10.8171 23.2462 13.4227 23.1685 16.393M27.8644 16.393C27.8094 18.402 27.5278 20.4308 26.8158 23.8784C25.8611 28.5726 25.6799 29.7958 25.6184 32.0501C25.5343 35.2458 25.9582 38.1929 27.0456 41.9091L27.0683 41.982H24.4437C23.3563 38.2426 22.9258 35.259 23.0164 32.0302C23.0779 29.7593 23.2689 28.4466 24.2203 23.769C24.9323 20.3081 25.1977 18.6705 25.2592 16.3731C25.3401 13.4459 24.9129 10.8734 23.6281 6.53734L23.6055 6.46438H26.2301C27.5149 10.8137 27.9453 13.4194 27.8644 16.3897M32.557 16.3897C32.5052 18.3953 32.2204 20.4241 31.5117 23.8751C30.557 28.5659 30.3758 29.7892 30.3143 32.0468C30.2269 35.2425 30.6541 38.1896 31.7382 41.9058L31.7609 41.9787H29.1395C28.0521 38.2459 27.6217 35.2623 27.7091 32.0268C27.7738 29.7494 27.9647 28.44 28.9162 23.7657C29.6249 20.3081 29.8903 18.6738 29.9551 16.3698C30.0327 13.4426 29.6055 10.8701 28.3207 6.53402L28.2981 6.46106H30.9227C32.2075 10.8104 32.6379 13.4161 32.557 16.3864M0 48.9669H7.10043V11.9044H0V48.9669ZM0 6.46106H7.10043V0H0V6.46106Z" fill="white"/>
</svg>
