<svg width="19" height="21" viewBox="0 0 19 21" fill="none" xmlns="http://www.w3.org/2000/svg">
<path d="M16.764 5.30463C16.764 5.4494 16.7328 5.59195 16.6731 5.7196C16.6134 5.84725 16.5271 5.95605 16.4218 6.03633L9.68398 11.1758L2.94618 6.03633C2.80883 5.93178 2.70455 5.77943 2.64877 5.60181C2.59298 5.42419 2.58866 5.23074 2.63644 5.05009C2.68422 4.86944 2.78156 4.71119 2.91407 4.59875C3.04657 4.48632 3.20719 4.42567 3.37216 4.42578H15.997C16.4218 4.42578 16.7652 4.81998 16.7652 5.30463M16.7652 8.43123V15.2258C16.7652 15.5838 16.6408 15.9272 16.4195 16.1804C16.1983 16.4335 15.8981 16.5758 15.5852 16.5758H3.78516C3.4722 16.5758 3.17207 16.4335 2.95077 16.1804C2.72948 15.9272 2.60516 15.5838 2.60516 15.2258V8.43123C2.60516 8.16123 2.8683 8.00058 3.06418 8.15043L9.68398 13.2008L16.305 8.15178C16.3493 8.11784 16.4009 8.0983 16.4542 8.09523C16.5074 8.09216 16.5605 8.10569 16.6076 8.13436C16.6547 8.16304 16.6941 8.20579 16.7216 8.25807C16.7492 8.31034 16.7638 8.37019 16.764 8.43123" fill="white"/>
</svg>
