<svg width="38" height="38" viewBox="0 0 38 38" fill="none" xmlns="http://www.w3.org/2000/svg">
<rect width="38" height="38" rx="4.28406" fill="#F1F1F1"/>
<path d="M22.1218 12.0006C19.4277 12.0006 17.2437 13.205 17.2437 14.6929C17.2437 16.1808 19.4283 17.3858 22.1218 17.3858C24.816 17.3858 27 16.1808 27 14.6929C27 13.205 24.8153 12.0006 22.1218 12.0006ZM27 15.4927C26.9988 16.9806 24.816 18.1856 22.1218 18.1856C19.4352 18.1856 17.2561 16.9937 17.2437 15.5127V16.566C17.2437 17.2016 17.6507 17.7835 18.3176 18.2443C18.9919 18.4278 19.5925 18.6826 20.0926 19.0048C20.7126 19.1621 21.3944 19.2583 22.1218 19.2583C24.816 19.2583 27 18.0539 27 16.566V15.4927ZM27 17.3658C27 18.8537 24.816 20.0587 22.1218 20.0587C21.794 20.0587 21.4756 20.0343 21.1659 20C21.4103 20.3291 21.577 20.7093 21.6536 21.112C21.809 21.1207 21.9626 21.1314 22.1218 21.1314C24.816 21.1314 27 19.9269 27 18.4391V17.3658ZM15.8782 18.868C13.184 18.868 11 20.0731 11 21.5609C11 23.0488 13.1847 24.2538 15.8782 24.2538C18.5723 24.2538 20.7563 23.0488 20.7563 21.5609C20.7563 20.0731 18.5717 18.868 15.8782 18.868ZM27 19.2389C26.9988 20.7268 24.816 21.9318 22.1218 21.9318C21.9651 21.9318 21.8065 21.9205 21.6536 21.9118C21.6467 21.9586 21.6429 22.0211 21.6342 22.0679C21.6654 22.1622 21.6923 22.2552 21.6923 22.3614V22.9857C21.834 22.9926 21.9764 23.0044 22.1218 23.0044C24.816 23.0044 27 21.8 27 20.3122V19.2389ZM27 21.112C26.9988 22.5999 24.816 23.8049 22.1218 23.8049C21.9651 23.8049 21.8065 23.7936 21.6536 23.7849C21.6467 23.8317 21.6429 23.8942 21.6342 23.941C21.6654 24.0347 21.6923 24.1283 21.6923 24.2344V24.8588C21.834 24.8657 21.9764 24.8775 22.1218 24.8775C24.816 24.8775 27 23.6731 27 22.1853V21.112ZM20.7563 22.3607C20.7551 23.8486 18.5723 25.0536 15.8782 25.0536C13.1915 25.0536 11.0125 23.8617 11 22.3801V23.434C11 24.9219 13.1834 26.1269 15.8782 26.1269C18.5729 26.1269 20.7563 24.9219 20.7563 23.434V22.3607ZM20.7563 24.2338C20.7551 25.7217 18.5723 26.9267 15.8782 26.9267C13.1915 26.9267 11.0125 25.7348 11 24.2532V25.3071C11 26.795 13.1834 28 15.8782 28C18.5729 28 20.7563 26.795 20.7563 25.3071V24.2338Z" fill="white"/>
</svg>
