<svg width="38" height="38" viewBox="0 0 38 38" fill="none" xmlns="http://www.w3.org/2000/svg">
<rect width="38" height="38" rx="4.28406" fill="#FFAE68"/>
<path d="M22.1218 11.0006C19.4277 11.0006 17.2437 12.205 17.2437 13.6929C17.2437 15.1808 19.4283 16.3858 22.1218 16.3858C24.816 16.3858 27 15.1808 27 13.6929C27 12.205 24.8153 11.0006 22.1218 11.0006ZM27 14.4927C26.9988 15.9806 24.816 17.1856 22.1218 17.1856C19.4352 17.1856 17.2561 15.9937 17.2437 14.5127V15.566C17.2437 16.2016 17.6507 16.7835 18.3176 17.2443C18.9919 17.4278 19.5925 17.6826 20.0926 18.0048C20.7126 18.1621 21.3944 18.2583 22.1218 18.2583C24.816 18.2583 27 17.0539 27 15.566V14.4927ZM27 16.3658C27 17.8537 24.816 19.0587 22.1218 19.0587C21.794 19.0587 21.4756 19.0343 21.1659 19C21.4103 19.3291 21.577 19.7093 21.6536 20.112C21.809 20.1207 21.9626 20.1314 22.1218 20.1314C24.816 20.1314 27 18.9269 27 17.4391V16.3658ZM15.8782 17.868C13.184 17.868 11 19.0731 11 20.5609C11 22.0488 13.1847 23.2538 15.8782 23.2538C18.5723 23.2538 20.7563 22.0488 20.7563 20.5609C20.7563 19.0731 18.5717 17.868 15.8782 17.868ZM27 18.2389C26.9988 19.7268 24.816 20.9318 22.1218 20.9318C21.9651 20.9318 21.8065 20.9205 21.6536 20.9118C21.6467 20.9586 21.6429 21.0211 21.6342 21.0679C21.6654 21.1622 21.6923 21.2552 21.6923 21.3614V21.9857C21.834 21.9926 21.9764 22.0044 22.1218 22.0044C24.816 22.0044 27 20.8 27 19.3122V18.2389ZM27 20.112C26.9988 21.5999 24.816 22.8049 22.1218 22.8049C21.9651 22.8049 21.8065 22.7936 21.6536 22.7849C21.6467 22.8317 21.6429 22.8942 21.6342 22.941C21.6654 23.0347 21.6923 23.1283 21.6923 23.2344V23.8588C21.834 23.8657 21.9764 23.8775 22.1218 23.8775C24.816 23.8775 27 22.6731 27 21.1853V20.112ZM20.7563 21.3607C20.7551 22.8486 18.5723 24.0536 15.8782 24.0536C13.1915 24.0536 11.0125 22.8617 11 21.3801V22.434C11 23.9219 13.1834 25.1269 15.8782 25.1269C18.5729 25.1269 20.7563 23.9219 20.7563 22.434V21.3607ZM20.7563 23.2338C20.7551 24.7217 18.5723 25.9267 15.8782 25.9267C13.1915 25.9267 11.0125 24.7348 11 23.2532V24.3071C11 25.795 13.1834 27 15.8782 27C18.5729 27 20.7563 25.795 20.7563 24.3071V23.2338Z" fill="white"/>
</svg>
