<svg width="38" height="38" viewBox="0 0 38 38" fill="none" xmlns="http://www.w3.org/2000/svg">
<rect width="38" height="38" rx="4.28406" fill="#F1F1F1"/>
<path d="M22.7446 9.40065C19.5117 9.40065 16.8908 10.8459 16.8908 12.6314C16.8908 14.4168 19.5124 15.8628 22.7446 15.8628C25.9776 15.8628 28.5984 14.4168 28.5984 12.6314C28.5984 10.8459 25.9769 9.40065 22.7446 9.40065ZM28.5984 13.5911C28.5969 15.3766 25.9776 16.8226 22.7446 16.8226C19.5207 16.8226 16.9058 15.3923 16.8908 13.6151V14.8791C16.8908 15.6418 17.3793 16.3401 18.1795 16.893C18.9887 17.1133 19.7095 17.419 20.3096 17.8056C21.0536 17.9944 21.8718 18.1098 22.7446 18.1098C25.9776 18.1098 28.5984 16.6645 28.5984 14.8791V13.5911ZM28.5984 15.8389C28.5984 17.6243 25.9776 19.0703 22.7446 19.0703C22.3513 19.0703 21.9692 19.0411 21.5975 18.9999C21.8908 19.3948 22.0909 19.851 22.1827 20.3343C22.3693 20.3448 22.5536 20.3575 22.7446 20.3575C25.9776 20.3575 28.5984 18.9122 28.5984 17.1268V15.8389ZM15.2522 17.6415C12.0193 17.6415 9.39844 19.0876 9.39844 20.873C9.39844 22.6584 12.02 24.1045 15.2522 24.1045C18.4852 24.1045 21.106 22.6584 21.106 20.873C21.106 19.0876 18.4845 17.6415 15.2522 17.6415ZM28.5984 18.0866C28.5969 19.872 25.9776 21.318 22.7446 21.318C22.5566 21.318 22.3663 21.3046 22.1827 21.2941C22.1745 21.3503 22.17 21.4252 22.1595 21.4814C22.1969 21.5945 22.2292 21.7062 22.2292 21.8335V22.5828C22.3992 22.591 22.5701 22.6052 22.7446 22.6052C25.9776 22.6052 28.5984 21.16 28.5984 19.3745V18.0866ZM28.5984 20.3343C28.5969 22.1197 25.9776 23.5658 22.7446 23.5658C22.5566 23.5658 22.3663 23.5523 22.1827 23.5418C22.1745 23.598 22.17 23.6729 22.1595 23.7291C22.1969 23.8415 22.2292 23.9539 22.2292 24.0812V24.8305C22.3992 24.8387 22.5701 24.853 22.7446 24.853C25.9776 24.853 28.5984 23.4077 28.5984 21.6222V20.3343ZM21.106 21.8328C21.1045 23.6182 18.4852 25.0642 15.2522 25.0642C12.0283 25.0642 9.41342 23.6339 9.39844 21.856V23.1207C9.39844 24.9062 12.0185 26.3522 15.2522 26.3522C18.486 26.3522 21.106 24.9062 21.106 23.1207V21.8328ZM21.106 24.0805C21.1045 25.8659 18.4852 27.312 15.2522 27.312C12.0283 27.312 9.41342 25.8817 9.39844 24.1037V25.3684C9.39844 27.1539 12.0185 28.5999 15.2522 28.5999C18.486 28.5999 21.106 27.1539 21.106 25.3684V24.0805Z" fill="white"/>
</svg>
