<svg width="24" height="24" viewBox="0 0 24 24" fill="none" xmlns="http://www.w3.org/2000/svg">
<path fill-rule="evenodd" clip-rule="evenodd" d="M3 4L12 1L21 4V13C21 17.9711 16.9711 22 12 22C7.02891 22 3 17.9711 3 13V4ZM8.16732 9.7066C8.26968 9.74914 8.36263 9.81148 8.44084 9.89004L10.8924 12.3416L15.5026 7.73379C15.5765 7.65968 15.6644 7.60088 15.7611 7.56077C15.8578 7.52065 15.9615 7.5 16.0662 7.5C16.1709 7.5 16.2746 7.52065 16.3713 7.56077C16.4681 7.60088 16.5559 7.65968 16.6299 7.73379L16.6955 7.79941C16.7696 7.87339 16.8284 7.96125 16.8685 8.05797C16.9087 8.15469 16.9293 8.25838 16.9293 8.36309C16.9293 8.4678 16.9087 8.57148 16.8685 8.6682C16.8284 8.76492 16.7696 8.85279 16.6955 8.92676L11.4572 14.165C11.3833 14.2392 11.2954 14.2979 11.1987 14.3381C11.102 14.3782 10.9983 14.3988 10.8936 14.3988C10.7889 14.3988 10.6852 14.3782 10.5885 14.3381C10.4917 14.2979 10.4039 14.2392 10.3299 14.165L10.2807 14.1158L7.24787 11.083C7.16931 11.0048 7.10697 10.9119 7.06443 10.8095C7.0219 10.7071 7 10.5974 7 10.4865C7 10.3757 7.0219 10.2659 7.06443 10.1636C7.10697 10.0612 7.16931 9.96824 7.24787 9.89004C7.32607 9.81148 7.41902 9.74914 7.52139 9.7066C7.62375 9.66407 7.7335 9.64217 7.84435 9.64217C7.9552 9.64217 8.06496 9.66407 8.16732 9.7066Z" fill="white"/>
</svg>
