<svg width="38" height="38" viewBox="0 0 38 38" fill="none" xmlns="http://www.w3.org/2000/svg">
<rect width="37.6998" height="37.6998" rx="4.28406" fill="#FFAE68"/>
<path fill-rule="evenodd" clip-rule="evenodd" d="M17.8857 9.91064C18.231 9.78217 18.6083 9.76542 18.9637 9.86279L19.1142 9.91064L25.2392 12.1948C25.5498 12.3106 25.8209 12.5118 26.0209 12.7749C26.2209 13.038 26.3416 13.3523 26.3689 13.681L26.375 13.8246V18.4911C26.375 19.9012 25.9921 21.285 25.2669 22.4966C24.5417 23.7082 23.501 24.7026 22.2546 25.3749L22.0219 25.4958L19.0871 26.9551C18.9255 27.0353 18.749 27.0815 18.5687 27.0908C18.3883 27.1001 18.2079 27.0722 18.0389 27.009L17.9129 26.9551L14.9781 25.4958C13.7099 24.8652 12.6364 23.9058 11.871 22.7188C11.1056 21.5319 10.6766 20.1615 10.6294 18.7522L10.625 18.4911V13.8246C10.625 13.4949 10.7192 13.172 10.8965 12.8935C11.0739 12.615 11.3272 12.3923 11.6269 12.2513L11.7607 12.1948L17.8857 9.91064ZM21.5039 15.5092L17.4806 19.5101L15.9336 17.9717C15.7694 17.8085 15.5468 17.7169 15.3147 17.717C15.0826 17.7171 14.86 17.8088 14.6959 17.9721C14.5319 18.1354 14.4397 18.3568 14.4398 18.5876C14.4399 18.8184 14.5322 19.0398 14.6964 19.2029L16.7999 21.2948C16.8893 21.3837 16.9954 21.4542 17.1122 21.5024C17.229 21.5505 17.3542 21.5753 17.4806 21.5753C17.6071 21.5753 17.7323 21.5505 17.8491 21.5024C17.9659 21.4542 18.072 21.3837 18.1614 21.2948L22.7411 16.7395C22.8247 16.6593 22.8914 16.5633 22.9372 16.4571C22.9831 16.3509 23.0072 16.2368 23.0082 16.1212C23.0092 16.0057 22.9871 15.8911 22.9431 15.7842C22.8991 15.6772 22.8341 15.5801 22.752 15.4984C22.6698 15.4167 22.5721 15.3521 22.4646 15.3083C22.357 15.2646 22.2418 15.2425 22.1256 15.2435C22.0095 15.2446 21.8946 15.2686 21.7879 15.3142C21.6811 15.3598 21.5846 15.4261 21.5039 15.5092Z" fill="white"/>
</svg>
