<svg width="140" height="20" viewBox="0 0 140 20" fill="none" xmlns="http://www.w3.org/2000/svg">
<circle cx="10" cy="10" r="10" fill="white"/>
<path d="M49.5 10C49.5 15.2467 45.2467 19.5 40 19.5C34.7533 19.5 30.5 15.2467 30.5 10C30.5 4.75329 34.7533 0.5 40 0.5C45.2467 0.5 49.5 4.75329 49.5 10Z" stroke="#FFAE68"/>
<path d="M79.5 10C79.5 15.2467 75.2467 19.5 70 19.5C64.7533 19.5 60.5 15.2467 60.5 10C60.5 4.75329 64.7533 0.5 70 0.5C75.2467 0.5 79.5 4.75329 79.5 10Z" stroke="#FFAE68"/>
<path d="M109.5 10C109.5 15.2467 105.247 19.5 100 19.5C94.7533 19.5 90.5 15.2467 90.5 10C90.5 4.75329 94.7533 0.5 100 0.5C105.247 0.5 109.5 4.75329 109.5 10Z" stroke="#FFAE68"/>
<path d="M139.5 10C139.5 15.2467 135.247 19.5 130 19.5C124.753 19.5 120.5 15.2467 120.5 10C120.5 4.75329 124.753 0.5 130 0.5C135.247 0.5 139.5 4.75329 139.5 10Z" stroke="#FFAE68"/>
</svg>
