<svg width="140" height="20" viewBox="0 0 140 20" fill="none" xmlns="http://www.w3.org/2000/svg">
<circle cx="10" cy="10" r="10" fill="white"/>
<path d="M50 10C50 15.5228 45.5228 20 40 20C34.4772 20 30 15.5228 30 10C30 4.47715 34.4772 0 40 0C45.5228 0 50 4.47715 50 10Z" fill="white"/>
<path d="M80 10C80 15.5228 75.5228 20 70 20C64.4772 20 60 15.5228 60 10C60 4.47715 64.4772 0 70 0C75.5228 0 80 4.47715 80 10Z" fill="white"/>
<path d="M110 10C110 15.5228 105.523 20 100 20C94.4772 20 90 15.5228 90 10C90 4.47715 94.4772 0 100 0C105.523 0 110 4.47715 110 10Z" fill="white"/>
<path d="M140 10C140 15.5228 135.523 20 130 20C124.477 20 120 15.5228 120 10C120 4.47715 124.477 0 130 0C135.523 0 140 4.47715 140 10Z" fill="white"/>
</svg>
