<svg width="31" height="32" viewBox="0 0 31 32" fill="none" xmlns="http://www.w3.org/2000/svg">
<path d="M14.88 0C6.66624 0 0 6.86933 0 15.3333C0 23.7973 6.66624 30.6667 14.88 30.6667C23.0938 30.6667 29.76 23.7973 29.76 15.3333C29.76 6.86933 23.0938 0 14.88 0ZM21.7843 10.4267C21.5611 12.8493 20.5939 18.7373 20.1029 21.4513C19.8946 22.6013 19.4779 22.9847 19.091 23.0307C18.228 23.1073 17.5733 22.448 16.74 21.8807C15.4306 20.9913 14.6866 20.4393 13.4218 19.5807C11.9486 18.584 12.901 18.032 13.7491 17.1427C13.9723 16.9127 17.7816 13.34 17.856 13.018C17.8663 12.9692 17.865 12.9186 17.852 12.8705C17.839 12.8224 17.8149 12.7783 17.7816 12.742C17.6923 12.6653 17.5733 12.696 17.4691 12.7113C17.3352 12.742 15.252 14.168 11.1898 16.9893C10.5946 17.4033 10.0589 17.618 9.58272 17.6027C9.04704 17.5873 8.0352 17.296 7.27632 17.0353C6.33888 16.7287 5.60976 16.56 5.66928 16.0233C5.69904 15.7473 6.07104 15.4713 6.7704 15.18C11.1154 13.2327 14.0021 11.9447 15.4454 11.3313C19.5821 9.55267 20.4302 9.246 20.9957 9.246C21.1147 9.246 21.3974 9.27667 21.576 9.43C21.7248 9.55267 21.7694 9.72133 21.7843 9.844C21.7694 9.936 21.7992 10.212 21.7843 10.4267Z" fill="#333333"/>
</svg>
