<svg width="24" height="24" viewBox="0 0 24 24" fill="none" xmlns="http://www.w3.org/2000/svg">
<path d="M21.7503 8.99981C21.7514 10.1224 21.4725 11.2275 20.9389 12.2152C20.4053 13.2028 19.6338 14.0418 18.6942 14.6561C17.7547 15.2704 16.6767 15.6407 15.558 15.7335C14.4393 15.8263 13.315 15.6385 12.2871 15.1873L7.40651 20.8329C7.39526 20.8461 7.38214 20.8601 7.36995 20.8723C6.80728 21.435 6.04413 21.7511 5.24839 21.7511C4.45265 21.7511 3.6895 21.435 3.12683 20.8723C2.56415 20.3096 2.24805 19.5465 2.24805 18.7508C2.24805 17.955 2.56415 17.1919 3.12683 16.6292C3.13995 16.617 3.15308 16.6039 3.16714 16.5926L8.81276 11.7129C8.30695 10.5559 8.13551 9.28023 8.3179 8.03069C8.50029 6.78115 9.0292 5.60772 9.84464 4.64353C10.6601 3.67933 11.7294 2.96294 12.9313 2.57564C14.1333 2.18833 15.4197 2.14561 16.6446 2.45231C16.7709 2.48396 16.8868 2.54794 16.9808 2.63794C17.0749 2.72795 17.1439 2.84089 17.1811 2.96565C17.2182 3.09041 17.2223 3.2227 17.1929 3.34951C17.1634 3.47632 17.1014 3.59327 17.0131 3.68888L13.5003 7.49981L14.0309 9.97013L16.5003 10.4998L20.3112 6.98231C20.4068 6.89395 20.5238 6.832 20.6506 6.80254C20.7774 6.77308 20.9097 6.77714 21.0344 6.81431C21.1592 6.85149 21.2721 6.9205 21.3621 7.01455C21.4521 7.10861 21.5161 7.22447 21.5478 7.35075C21.6824 7.89011 21.7504 8.44392 21.7503 8.99981Z" fill="white"/>
</svg>
