<svg width="38" height="38" viewBox="0 0 38 38" fill="none" xmlns="http://www.w3.org/2000/svg">
<rect width="37.6998" height="37.6998" rx="4.28406" fill="#FFAE68"/>
<path d="M28.8248 15.9225C28.8259 17.0738 28.5422 18.2072 27.9994 19.2201C27.4565 20.233 26.6716 21.0934 25.7158 21.7235C24.7599 22.3536 23.6633 22.7333 22.5251 22.8285C21.387 22.9236 20.2433 22.7311 19.1976 22.2683L14.2323 28.0584C14.2209 28.0718 14.2075 28.0862 14.1951 28.0987C13.6227 28.6758 12.8463 29 12.0367 29C11.2272 29 10.4508 28.6758 9.87839 28.0987C9.30596 27.5217 8.98438 26.739 8.98438 25.9229C8.98438 25.1068 9.30596 24.3241 9.87839 23.7471C9.89175 23.7346 9.9051 23.7211 9.91941 23.7096L15.6629 18.705C15.1484 17.5184 14.9739 16.2101 15.1595 14.9286C15.345 13.6471 15.8831 12.4436 16.7127 11.4548C17.5423 10.4659 18.6302 9.73118 19.8529 9.33397C21.0757 8.93676 22.3844 8.89294 23.6306 9.20749C23.7591 9.23995 23.877 9.30556 23.9727 9.39787C24.0683 9.49018 24.1386 9.606 24.1764 9.73396C24.2142 9.86191 24.2183 9.99759 24.1883 10.1276C24.1584 10.2577 24.0954 10.3776 24.0055 10.4757L20.4317 14.3841L20.9716 16.9176L23.4838 17.4609L27.3608 13.8534C27.458 13.7628 27.577 13.6992 27.706 13.669C27.835 13.6388 27.9696 13.643 28.0965 13.6811C28.2235 13.7192 28.3384 13.79 28.4299 13.8864C28.5215 13.9829 28.5866 14.1017 28.6188 14.2312C28.7557 14.7844 28.8249 15.3524 28.8248 15.9225Z" fill="white"/>
</svg>
