<svg width="31" height="32" viewBox="0 0 31 32" fill="none" xmlns="http://www.w3.org/2000/svg">
<path d="M17.9248 15.0928L14.3312 13.416C14.0176 13.2704 13.76 13.4336 13.76 13.7808V16.9392C13.76 17.2864 14.0176 17.4496 14.3312 17.304L17.9232 15.6272C18.2384 15.48 18.2384 15.24 17.9248 15.0928ZM15.36 0C6.8768 0 0 6.8768 0 15.36C0 23.8432 6.8768 30.72 15.36 30.72C23.8432 30.72 30.72 23.8432 30.72 15.36C30.72 6.8768 23.8432 0 15.36 0ZM15.36 21.6C7.4976 21.6 7.36 20.8912 7.36 15.36C7.36 9.8288 7.4976 9.12 15.36 9.12C23.2224 9.12 23.36 9.8288 23.36 15.36C23.36 20.8912 23.2224 21.6 15.36 21.6Z" fill="#333333"/>
</svg>
